<mxfile host="app.diagrams.net" modified="2023-02-23T09:43:32.681Z" agent="5.0 (Windows NT 10.0; Win64; x64) AppleWebKit/537.36 (KHTML, like Gecko) Chrome/110.0.0.0 Safari/537.36" etag="XYI_bI5eAbyYERu0830a" version="20.8.23" type="github">
  <diagram name="Strona-1" id="1s-_s_2caJ6478dCMUCm">
    <mxGraphModel dx="1434" dy="796" grid="1" gridSize="10" guides="1" tooltips="1" connect="1" arrows="1" fold="1" page="1" pageScale="1" pageWidth="827" pageHeight="1169" math="0" shadow="0">
      <root>
        <mxCell id="0" />
        <mxCell id="1" parent="0" />
        <mxCell id="ayifdrNRMuTz71IC2R4Z-1" value="START" style="ellipse;whiteSpace=wrap;html=1;" vertex="1" parent="1">
          <mxGeometry x="350" y="30" width="120" height="80" as="geometry" />
        </mxCell>
        <mxCell id="ayifdrNRMuTz71IC2R4Z-5" value="" style="edgeStyle=orthogonalEdgeStyle;rounded=0;orthogonalLoop=1;jettySize=auto;html=1;" edge="1" parent="1" source="ayifdrNRMuTz71IC2R4Z-2" target="ayifdrNRMuTz71IC2R4Z-4">
          <mxGeometry relative="1" as="geometry" />
        </mxCell>
        <mxCell id="ayifdrNRMuTz71IC2R4Z-2" value="a = []&lt;br&gt;tak = podany element&lt;br&gt;element = False&lt;br&gt;i = 0" style="rounded=0;whiteSpace=wrap;html=1;" vertex="1" parent="1">
          <mxGeometry x="350" y="180" width="120" height="60" as="geometry" />
        </mxCell>
        <mxCell id="ayifdrNRMuTz71IC2R4Z-3" value="" style="endArrow=classic;html=1;rounded=0;" edge="1" parent="1" source="ayifdrNRMuTz71IC2R4Z-1">
          <mxGeometry width="50" height="50" relative="1" as="geometry">
            <mxPoint x="410" y="160" as="sourcePoint" />
            <mxPoint x="410" y="180.71067811865476" as="targetPoint" />
          </mxGeometry>
        </mxCell>
        <mxCell id="ayifdrNRMuTz71IC2R4Z-4" value="i &amp;lt; len(a[])&amp;nbsp;" style="rhombus;whiteSpace=wrap;html=1;rounded=0;" vertex="1" parent="1">
          <mxGeometry x="210" y="310" width="240" height="80" as="geometry" />
        </mxCell>
        <mxCell id="ayifdrNRMuTz71IC2R4Z-7" value="F" style="edgeStyle=orthogonalEdgeStyle;rounded=0;orthogonalLoop=1;jettySize=auto;html=1;exitX=1;exitY=0.5;exitDx=0;exitDy=0;entryX=0;entryY=0.5;entryDx=0;entryDy=0;" edge="1" parent="1" source="ayifdrNRMuTz71IC2R4Z-4" target="ayifdrNRMuTz71IC2R4Z-12">
          <mxGeometry relative="1" as="geometry">
            <mxPoint x="530" y="350" as="sourcePoint" />
            <mxPoint x="530" y="450" as="targetPoint" />
          </mxGeometry>
        </mxCell>
        <mxCell id="ayifdrNRMuTz71IC2R4Z-9" value="" style="edgeStyle=orthogonalEdgeStyle;rounded=0;orthogonalLoop=1;jettySize=auto;html=1;entryX=0;entryY=0.5;entryDx=0;entryDy=0;" edge="1" parent="1" source="ayifdrNRMuTz71IC2R4Z-12" target="ayifdrNRMuTz71IC2R4Z-8">
          <mxGeometry relative="1" as="geometry">
            <mxPoint x="690" y="440" as="targetPoint" />
          </mxGeometry>
        </mxCell>
        <mxCell id="ayifdrNRMuTz71IC2R4Z-8" value="END" style="ellipse;whiteSpace=wrap;html=1;rounded=0;" vertex="1" parent="1">
          <mxGeometry x="730" y="310" width="80" height="80" as="geometry" />
        </mxCell>
        <mxCell id="ayifdrNRMuTz71IC2R4Z-10" value="T" style="endArrow=classic;html=1;rounded=0;" edge="1" parent="1" source="ayifdrNRMuTz71IC2R4Z-4">
          <mxGeometry width="50" height="50" relative="1" as="geometry">
            <mxPoint x="410" y="440" as="sourcePoint" />
            <mxPoint x="410" y="460.71067811865476" as="targetPoint" />
          </mxGeometry>
        </mxCell>
        <mxCell id="ayifdrNRMuTz71IC2R4Z-12" value="Wypisz element&lt;br&gt;Wypisz i" style="rounded=1;whiteSpace=wrap;html=1;" vertex="1" parent="1">
          <mxGeometry x="530" y="320" width="120" height="60" as="geometry" />
        </mxCell>
        <mxCell id="ayifdrNRMuTz71IC2R4Z-14" value="a[i] == tak" style="rhombus;whiteSpace=wrap;html=1;" vertex="1" parent="1">
          <mxGeometry x="370" y="460" width="80" height="80" as="geometry" />
        </mxCell>
        <mxCell id="ayifdrNRMuTz71IC2R4Z-17" value="T" style="endArrow=none;html=1;rounded=0;exitX=1;exitY=0.5;exitDx=0;exitDy=0;" edge="1" parent="1" source="ayifdrNRMuTz71IC2R4Z-14">
          <mxGeometry width="50" height="50" relative="1" as="geometry">
            <mxPoint x="440" y="550" as="sourcePoint" />
            <mxPoint x="520" y="430" as="targetPoint" />
          </mxGeometry>
        </mxCell>
        <mxCell id="ayifdrNRMuTz71IC2R4Z-18" value="" style="endArrow=classic;html=1;rounded=0;entryX=0;entryY=1;entryDx=0;entryDy=0;" edge="1" parent="1" target="ayifdrNRMuTz71IC2R4Z-12">
          <mxGeometry width="50" height="50" relative="1" as="geometry">
            <mxPoint x="520" y="430" as="sourcePoint" />
            <mxPoint x="560" y="430" as="targetPoint" />
          </mxGeometry>
        </mxCell>
        <mxCell id="ayifdrNRMuTz71IC2R4Z-19" value="element = TRUE" style="rounded=1;whiteSpace=wrap;html=1;" vertex="1" parent="1">
          <mxGeometry x="520" y="400" width="120" height="60" as="geometry" />
        </mxCell>
        <mxCell id="ayifdrNRMuTz71IC2R4Z-20" value="F" style="endArrow=classic;html=1;rounded=0;" edge="1" parent="1" source="ayifdrNRMuTz71IC2R4Z-14">
          <mxGeometry width="50" height="50" relative="1" as="geometry">
            <mxPoint x="299.28932188134524" y="550" as="sourcePoint" />
            <mxPoint x="170" y="480" as="targetPoint" />
          </mxGeometry>
        </mxCell>
        <mxCell id="ayifdrNRMuTz71IC2R4Z-21" value="i += 1" style="rounded=1;whiteSpace=wrap;html=1;" vertex="1" parent="1">
          <mxGeometry x="50" y="440" width="120" height="60" as="geometry" />
        </mxCell>
        <mxCell id="ayifdrNRMuTz71IC2R4Z-22" value="" style="endArrow=classic;html=1;rounded=0;entryX=0;entryY=0.5;entryDx=0;entryDy=0;exitX=0.5;exitY=0;exitDx=0;exitDy=0;" edge="1" parent="1" source="ayifdrNRMuTz71IC2R4Z-21" target="ayifdrNRMuTz71IC2R4Z-4">
          <mxGeometry width="50" height="50" relative="1" as="geometry">
            <mxPoint x="130" y="490" as="sourcePoint" />
            <mxPoint x="180" y="440" as="targetPoint" />
          </mxGeometry>
        </mxCell>
      </root>
    </mxGraphModel>
  </diagram>
</mxfile>
